<?xml version="1.0" encoding="UTF-8"?>
<svg xmlns="http://www.w3.org/2000/svg" id="Layer_1" data-name="Layer 1" viewBox="0 0 512 512" width="512" height="512"><path d="M65,271.041a6,6,0,0,0,12,0V186.227a6,6,0,1,0-12,0Z"/><path d="M71,169.259a6,6,0,0,0,6-6v-6a6,6,0,0,0-12,0v6A6,6,0,0,0,71,169.259Z"/><path d="M256,273.4a14.443,14.443,0,1,0,14.5,14.443A14.488,14.488,0,0,0,256,273.4Zm0,16.886a2.444,2.444,0,1,1,2.5-2.443A2.475,2.475,0,0,1,256,290.286Z"/><path d="M256,205.767a14.443,14.443,0,1,0,14.5,14.442A14.488,14.488,0,0,0,256,205.767Zm0,16.886a2.444,2.444,0,1,1,2.5-2.444A2.475,2.475,0,0,1,256,222.653Z"/><path d="M256,341.033a14.443,14.443,0,1,0,14.5,14.443A14.488,14.488,0,0,0,256,341.033Zm0,16.886a2.444,2.444,0,1,1,2.5-2.443A2.475,2.475,0,0,1,256,357.919Z"/><path d="M256,408.667a14.443,14.443,0,1,0,14.5,14.442A14.488,14.488,0,0,0,256,408.667Zm0,16.886a2.444,2.444,0,1,1,2.5-2.444A2.475,2.475,0,0,1,256,425.553Z"/><path d="M186.461,382.756,145.375,372.3a6,6,0,1,0-2.959,11.629L183.5,394.385a6,6,0,0,0,2.96-11.629Z"/><path d="M367.8,372.3l-41.085,10.456a6,6,0,1,0,2.96,11.629l41.085-10.456A6,6,0,1,0,367.8,372.3Z"/><path d="M186.461,432.756,145.375,422.3a6,6,0,1,0-2.959,11.629L183.5,444.385a6,6,0,0,0,2.96-11.629Z"/><path d="M367.8,422.3l-41.085,10.456a6,6,0,1,0,2.96,11.629l41.085-10.456A6,6,0,1,0,367.8,422.3Z"/><path d="M44,501H468.3a5.7,5.7,0,0,0,5.7-5.7V150.743a99.85,99.85,0,0,0-54.556-88.794,5.984,5.984,0,0,0-3.051-2.582L319.861,24.029l-12.649-4.392a156.776,156.776,0,0,0-102.424,0l-12.305,4.272-95.7,35.458a5.978,5.978,0,0,0-2.469,1.755A99.665,99.665,0,0,0,38,150.743V347a6,6,0,0,0,12,0V150.743a87.6,87.6,0,0,1,43.934-75.9L117.85,294.672l-.163,15.215L94.291,489H50V387a6,6,0,0,0-12,0V495A6,6,0,0,0,44,501ZM284,307.973V489H229V307.973a6.055,6.055,0,0,0-.115-.661L213.322,167.568l23.238-10.787A9.849,9.849,0,0,0,242.655,159h26.69a9.849,9.849,0,0,0,6.13-2.246L299.791,168.1,284.2,307.312C284.177,307.532,284,307.752,284,307.973ZM204.146,126.092l-5.381-22.487a.372.372,0,0,1,.138-.438.393.393,0,0,1,.434-.046L233,118.819v.507l-6.234-1.622a6,6,0,1,0-3.04,11.6L233,131.736v.844l-9.3,2.429a5.995,5.995,0,0,0,1.461,11.8,6.632,6.632,0,0,0,1.612-.2L233,144.99v.2l-33.665,15.678a.327.327,0,0,1-.392-.046.39.39,0,0,1-.161-.438l5.37-22.5A25.47,25.47,0,0,0,204.146,126.092Zm103.715,11.8,5.378,22.483a.372.372,0,0,1-.139.438.392.392,0,0,1-.435.046L279,145.15v-.076l5.917,1.538a6.318,6.318,0,0,0,1.579.2,5.99,5.99,0,0,0,1.472-11.8L279,132.663v-1.01l8.979-2.346a6,6,0,1,0-3.084-11.6L279,119.242v-.416l33.666-15.7a.324.324,0,0,1,.39.045.389.389,0,0,1,.162.438l-5.367,22.486A25.48,25.48,0,0,0,307.861,137.893Zm.367-45.878c-.187.077-.374.151-.558.237l-32.208,14.98A9.847,9.847,0,0,0,269.345,105h-26.69a9.849,9.849,0,0,0-6.113,2.228L205,92.522l-2.229-20.113a153.839,153.839,0,0,1,107.581.416ZM267,117v30H245V117ZM419.165,75.527A87.886,87.886,0,0,1,462,150.743V489H417.74L395.416,309.717l-.115-14.834Zm-11.358-6.57L383.332,293.932a5.979,5.979,0,0,0-.034.695l.12,15.532a5.994,5.994,0,0,0,.047.695L405.647,489H296V309.254l76.338-170.265a5.977,5.977,0,0,0-1.156-6.7l-25.916-25.9,20.218-23.517a6,6,0,0,0,.119-7.688L339.759,43.313Zm-88.275,59.929,5.379-22.488a12.342,12.342,0,0,0-4.227-12.53c-.178-.144-.36-.278-.543-.411l5.391-48.641,27.606,34.04L332.576,102.8a6,6,0,0,0,.314,8.157l26.97,26.909L300.519,270.505l10.826-97.685a12.7,12.7,0,0,0,1.568.108,12.436,12.436,0,0,0,12-15.338L319.532,135.1A13.414,13.414,0,0,1,319.532,128.886ZM208.725,30.973a144.723,144.723,0,0,1,94.55,0l11.284,3.918-2.844,25.661a165.722,165.722,0,0,0-110.3-.4L198.572,34.5ZM192.951,92.721a12.731,12.731,0,0,0-1.634,1.125,12.359,12.359,0,0,0-4.226,12.541l5.379,22.493a13.419,13.419,0,0,1,0,6.219l-5.381,22.5a12.335,12.335,0,0,0,14.716,15.012l10.85,97.9L153.313,137.864l26.971-26.909a6,6,0,0,0,.314-8.157L160.036,78.856l27.606-34.041ZM129.632,311.087a6.087,6.087,0,0,0,.05-.713l.171-15.931a5.86,5.86,0,0,0-.035-.713L105.365,68.957,173.41,43.313,147.561,75.187a6,6,0,0,0,.108,7.688l20.2,23.517-25.957,25.9a5.975,5.975,0,0,0-1.161,6.7L217,309.254V489H106.393Z"/></svg>
